<svg xmlns="http://www.w3.org/2000/svg" viewBox="0 0 1200 420" role="img" aria-label="Inclusive care illustration">
  <defs>
    <linearGradient id="bg" x1="0" y1="0" x2="1" y2="1">
      <stop offset="0" stop-color="#22C55E" stop-opacity="0.18"/>
      <stop offset="0.5" stop-color="#2DD4BF" stop-opacity="0.16"/>
      <stop offset="1" stop-color="#A855F7" stop-opacity="0.18"/>
    </linearGradient>
  </defs>
  <rect width="1200" height="420" rx="36" fill="url(#bg)"/>

  <!-- People circles -->
  <g>
    <circle cx="260" cy="210" r="74" fill="#FFFFFF" fill-opacity="0.70"/>
    <circle cx="600" cy="190" r="86" fill="#FFFFFF" fill-opacity="0.62"/>
    <circle cx="940" cy="220" r="70" fill="#FFFFFF" fill-opacity="0.66"/>
  </g>

  <!-- Connection lines -->
  <g fill="none" stroke="#FFFFFF" stroke-opacity="0.70" stroke-width="14" stroke-linecap="round">
    <path d="M334 210c110-60 220-68 340-20"/>
    <path d="M686 200c110 18 170 30 270 48"/>
  </g>

  <!-- Accessibility + heartbeat motifs -->
  <g fill="none" stroke="#0B1220" stroke-opacity="0.14" stroke-width="18" stroke-linecap="round" stroke-linejoin="round">
    <path d="M120 300h120l40-80 46 110 40-76h134"/>
    <path d="M980 120c28-38 78-38 106 0 28 38 10 82-18 108-28 26-60 44-88 68-28-24-60-42-88-68-28-26-46-70-18-108 28-38 78-38 106 0z"/>
  </g>

  <!-- Footer caption bar -->
  <rect x="210" y="328" width="780" height="56" rx="28" fill="#FFFFFF" fill-opacity="0.62"/>
  <rect x="250" y="350" width="380" height="16" rx="8" fill="#0B1220" fill-opacity="0.12"/>
  <rect x="650" y="350" width="240" height="16" rx="8" fill="#0B1220" fill-opacity="0.08"/>
</svg>
